<?xml version="1.0" encoding="UTF-8"?>
<svg id="Calque_1" data-name="Calque 1" xmlns="http://www.w3.org/2000/svg" xmlns:xlink="http://www.w3.org/1999/xlink" viewBox="0 0 31.34 64.87">
  <defs>
    <style>
      .cls-1 {
        filter: url(#drop-shadow-3);
      }

      .cls-1, .cls-2, .cls-3, .cls-4 {
        fill: #fdd39d;
        stroke: #1d1d1b;
        stroke-miterlimit: 10;
      }

      .cls-2 {
        filter: url(#drop-shadow-1);
      }

      .cls-3 {
        filter: url(#drop-shadow-4);
      }

      .cls-4 {
        filter: url(#drop-shadow-2);
      }
    </style>
    <filter id="drop-shadow-1" filterUnits="userSpaceOnUse">
      <feOffset dx="2" dy="2"/>
      <feGaussianBlur result="blur" stdDeviation="0"/>
      <feFlood flood-color="#1d1d1b" flood-opacity="1"/>
      <feComposite in2="blur" operator="in"/>
      <feComposite in="SourceGraphic"/>
    </filter>
    <filter id="drop-shadow-2" filterUnits="userSpaceOnUse">
      <feOffset dx="2" dy="2"/>
      <feGaussianBlur result="blur-2" stdDeviation="0"/>
      <feFlood flood-color="#1d1d1b" flood-opacity="1"/>
      <feComposite in2="blur-2" operator="in"/>
      <feComposite in="SourceGraphic"/>
    </filter>
    <filter id="drop-shadow-3" filterUnits="userSpaceOnUse">
      <feOffset dx="2" dy="2"/>
      <feGaussianBlur result="blur-3" stdDeviation="0"/>
      <feFlood flood-color="#1d1d1b" flood-opacity="1"/>
      <feComposite in2="blur-3" operator="in"/>
      <feComposite in="SourceGraphic"/>
    </filter>
    <filter id="drop-shadow-4" filterUnits="userSpaceOnUse">
      <feOffset dx="2" dy="2"/>
      <feGaussianBlur result="blur-4" stdDeviation="0"/>
      <feFlood flood-color="#1d1d1b" flood-opacity="1"/>
      <feComposite in2="blur-4" operator="in"/>
      <feComposite in="SourceGraphic"/>
    </filter>
  </defs>
  <path class="cls-2" d="m6.17,34.16h5.67v22.54c0,3.13-2.54,5.67-5.67,5.67h0c-3.13,0-5.67-2.54-5.67-5.67v-16.87c0-3.13,2.54-5.67,5.67-5.67Z"/>
  <path class="cls-4" d="m6.17.5h0c3.13,0,5.67,2.54,5.67,5.67v22.54h-5.67c-3.13,0-5.67-2.54-5.67-5.67V6.17C.5,3.04,3.04.5,6.17.5Z"/>
  <path class="cls-1" d="m23.17.5h0c3.13,0,5.67,2.54,5.67,5.67v16.87c0,3.13-2.54,5.67-5.67,5.67h-5.67V6.17c0-3.13,2.54-5.67,5.67-5.67Z"/>
  <path class="cls-3" d="m17.5,34.16h5.67c3.13,0,5.67,2.54,5.67,5.67v16.87c0,3.13-2.54,5.67-5.67,5.67h0c-3.13,0-5.67-2.54-5.67-5.67v-22.54h0Z"/>
</svg>